<svg version="1.1" id="Layer_1" xmlns="http://www.w3.org/2000/svg" xmlns:xlink="http://www.w3.org/1999/xlink" x="0px" y="0px"
	 width="100%" viewBox="0 0 1361 784" enable-background="new 0 0 1361 784" xml:space="preserve">
<path fill="none" opacity="1.000000" stroke="none" 
	d="
M916.000000,785.000000 
	C610.702148,785.000000 305.904266,785.000000 1.053200,785.000000 
	C1.053200,523.732544 1.053200,262.465088 1.053200,1.098809 
	C454.548004,1.098809 908.096008,1.098809 1361.822021,1.098809 
	C1361.822021,262.333221 1361.822021,523.666626 1361.822021,785.000000 
	C1213.464844,785.000000 1064.982422,785.000000 916.000000,785.000000 
M549.620850,743.962769 
	C575.750610,750.164490 601.943909,750.591064 627.523193,742.127991 
	C686.002014,722.780029 722.493652,682.258606 737.817017,623.081970 
	C765.299072,516.950195 792.084961,410.638245 819.185791,304.407684 
	C820.499329,299.259186 822.042969,294.169403 823.479492,289.052277 
	C826.164734,295.212891 827.731262,301.281128 829.299561,307.348938 
	C856.939758,414.290436 884.569275,521.234680 912.228149,628.171387 
	C919.030518,654.471069 929.939575,678.730164 948.209595,699.216736 
	C975.410461,729.717773 1008.493469,748.205627 1050.265747,748.235535 
	C1089.536377,748.263733 1121.644653,732.954407 1146.308960,702.287842 
	C1159.516846,685.865540 1166.929321,666.650940 1172.767944,646.731995 
	C1203.796265,540.877136 1234.812500,435.018677 1265.749756,329.137207 
	C1295.426147,227.571381 1325.003296,125.976524 1354.614380,24.391644 
	C1356.269043,18.715454 1357.834839,13.013441 1359.622681,6.683173 
	C1345.208862,6.683173 1331.572632,6.624741 1317.937256,6.696488 
	C1295.955444,6.812151 1281.039429,18.067167 1274.959473,39.158257 
	C1238.276489,166.409973 1201.554077,293.650360 1164.973755,420.931610 
	C1144.202148,493.206787 1123.797119,565.587585 1102.951538,637.841309 
	C1097.887817,655.393066 1087.986450,669.726746 1070.006470,676.104492 
	C1033.103394,689.194580 996.430420,664.230896 985.212646,626.810669 
	C988.518127,624.682434 991.934143,622.629028 995.198853,620.357971 
	C1021.550110,602.027100 1036.263794,575.677307 1044.930420,545.774597 
	C1067.019775,469.558441 1088.476196,393.159119 1110.305786,316.867401 
	C1137.995728,220.094986 1165.805054,123.356674 1193.558228,26.602354 
	C1195.408325,20.152685 1197.220947,13.692280 1199.212280,6.667725 
	C1185.785278,6.667725 1173.138550,7.030357 1160.520264,6.586384 
	C1139.318237,5.840388 1121.967896,19.050886 1115.926025,40.636829 
	C1097.001099,108.248795 1077.536377,175.709473 1058.350952,243.248718 
	C1037.984253,314.946198 1017.716370,386.671753 997.365479,458.373688 
	C991.006470,480.778473 984.948242,503.283539 977.883179,525.465881 
	C974.936829,534.716858 969.721619,543.245239 965.538025,552.102173 
	C965.009521,551.911011 964.481079,551.719788 963.952576,551.528564 
	C958.424744,530.634583 952.822144,509.760010 947.383118,488.842926 
	C931.348877,427.179230 915.404968,365.492065 899.371887,303.828064 
	C893.050842,279.516876 887.093262,255.094696 880.040894,230.995026 
	C873.573853,208.895584 853.341187,195.489761 830.949463,197.339798 
	C808.790344,199.170563 791.011536,209.300690 777.475159,226.794769 
	C768.024841,239.008041 763.258667,253.202850 759.437378,268.077209 
	C735.013428,363.147797 710.245972,458.130371 685.459473,553.107483 
	C679.580872,575.633423 674.471924,598.474121 666.790527,620.392639 
	C649.375793,670.084778 596.634827,692.604980 548.982666,671.841675 
	C534.110779,665.361633 523.001099,654.463623 512.410095,642.364319 
	C478.609558,603.750305 444.188812,565.679260 410.012695,527.393982 
	C404.658447,521.395996 399.330658,515.374451 393.683502,509.018097 
	C402.805328,506.399780 411.200836,504.350189 419.357574,501.594086 
	C522.157776,466.858612 586.180847,372.613220 588.708984,266.151886 
	C589.450134,234.941452 583.909729,204.489716 573.854553,174.919876 
	C560.883850,136.776016 541.033325,102.712776 511.762848,74.832077 
	C463.842682,29.187172 406.384094,6.727629 340.248108,6.676905 
	C242.083252,6.601615 143.918274,6.686606 45.753349,6.707411 
	C43.753677,6.707834 41.750355,6.688868 39.754932,6.795232 
	C25.036194,7.579806 15.654539,17.011093 15.381111,31.706619 
	C15.145511,44.369011 15.293535,57.038624 15.280365,69.705048 
	C15.272988,76.799095 15.280694,76.793480 22.149336,76.793419 
	C126.980881,76.792389 231.812454,76.770706 336.643951,76.838226 
	C344.458252,76.843254 352.342041,76.941162 360.075165,77.925621 
	C421.559814,85.752884 467.861511,116.492912 497.080597,171.278015 
	C516.505066,207.698471 522.911072,246.876038 517.193542,287.918488 
	C511.593811,328.115723 495.002167,363.126343 466.977478,392.379700 
	C431.593231,429.315277 387.364868,446.457855 336.815094,447.975525 
	C314.834717,448.635406 292.819244,448.134918 270.819702,448.143585 
	C240.986877,448.155334 211.153809,448.080109 181.321335,448.183197 
	C167.726776,448.230194 154.656113,455.291779 155.598465,473.725891 
	C156.235779,486.192841 155.710510,498.719208 155.705414,511.218994 
	C155.704773,512.811279 155.705322,514.403625 155.705322,516.125732 
	C157.758499,516.219482 159.070847,516.331848 160.383194,516.331787 
	C208.215668,516.330872 256.048218,516.352844 303.880463,516.240173 
	C307.330811,516.232056 309.762299,517.119812 312.074219,519.770081 
	C328.394073,538.477844 344.788239,557.122131 361.291687,575.668335 
	C395.297241,613.882935 429.584839,651.848694 463.371582,690.255310 
	C486.615570,716.677673 514.795898,734.779419 549.620850,743.962769 
M174.500000,154.162643 
	C130.676300,154.169846 86.852585,154.204529 43.028919,154.169266 
	C27.799290,154.157013 14.391621,163.509293 15.249595,181.731659 
	C15.648833,190.211044 15.310286,198.725113 15.307664,207.223465 
	C15.306085,212.343445 15.307373,217.463440 15.307373,223.045898 
	C17.540014,223.045898 19.166698,223.046005 20.793383,223.045883 
	C51.787361,223.043549 82.781334,223.041824 113.775314,223.038712 
	C186.094589,223.031433 258.413849,223.037308 330.733124,223.000397 
	C341.139221,222.995087 350.480743,225.714523 358.029572,233.187485 
	C369.503143,244.545746 372.923981,262.414825 366.625854,277.592834 
	C360.367706,292.674561 347.164795,301.233185 330.031036,301.236816 
	C301.536591,301.242859 273.041779,301.115173 244.547806,301.220001 
	C206.734497,301.359100 168.888657,300.770874 131.118713,302.168579 
	C96.964737,303.432465 68.683540,318.608551 46.600464,344.667694 
	C24.643059,370.578522 15.565113,400.893677 15.662666,434.701111 
	C15.959336,537.513550 15.751443,640.327454 15.752150,743.140747 
	C15.752160,744.742554 15.907166,746.344421 15.990098,747.951294 
	C39.368130,747.951294 62.272720,747.951294 85.714302,747.951294 
	C85.714302,745.489319 85.714096,743.357544 85.714333,741.225830 
	C85.725060,645.577759 85.730606,549.929688 85.754578,454.281616 
	C85.757004,444.617798 85.378922,434.921173 86.020576,425.295990 
	C88.386314,389.808868 112.610634,369.540649 143.752289,369.734558 
	C205.237854,370.117462 266.727661,369.849396 328.215607,369.766052 
	C333.864960,369.758392 339.565704,369.521667 345.154388,368.751495 
	C407.780060,360.121307 446.553497,307.155090 438.954681,249.209732 
	C435.407471,222.160522 424.009460,198.934082 403.415436,180.693497 
	C383.496155,163.050522 359.836121,154.454437 333.468567,154.270447 
	C280.814697,153.903015 228.156448,154.162796 174.500000,154.162643 
z"/>
<path fill="#828282" opacity="1.000000" stroke="none" 
	d="
M549.212158,743.885986 
	C514.795898,734.779419 486.615570,716.677673 463.371582,690.255310 
	C429.584839,651.848694 395.297241,613.882935 361.291687,575.668335 
	C344.788239,557.122131 328.394073,538.477844 312.074219,519.770081 
	C309.762299,517.119812 307.330811,516.232056 303.880463,516.240173 
	C256.048218,516.352844 208.215668,516.330872 160.383194,516.331787 
	C159.070847,516.331848 157.758499,516.219482 155.705322,516.125732 
	C155.705322,514.403625 155.704773,512.811279 155.705414,511.218994 
	C155.710510,498.719208 156.235779,486.192841 155.598465,473.725891 
	C154.656113,455.291779 167.726776,448.230194 181.321335,448.183197 
	C211.153809,448.080109 240.986877,448.155334 270.819702,448.143585 
	C292.819244,448.134918 314.834717,448.635406 336.815094,447.975525 
	C387.364868,446.457855 431.593231,429.315277 466.977478,392.379700 
	C495.002167,363.126343 511.593811,328.115723 517.193542,287.918488 
	C522.911072,246.876038 516.505066,207.698471 497.080597,171.278015 
	C467.861511,116.492912 421.559814,85.752884 360.075165,77.925621 
	C352.342041,76.941162 344.458252,76.843254 336.643951,76.838226 
	C231.812454,76.770706 126.980881,76.792389 22.149336,76.793419 
	C15.280694,76.793480 15.272988,76.799095 15.280365,69.705048 
	C15.293535,57.038624 15.145511,44.369011 15.381111,31.706619 
	C15.654539,17.011093 25.036194,7.579806 39.754932,6.795232 
	C41.750355,6.688868 43.753677,6.707834 45.753349,6.707411 
	C143.918274,6.686606 242.083252,6.601615 340.248108,6.676905 
	C406.384094,6.727629 463.842682,29.187172 511.762848,74.832077 
	C541.033325,102.712776 560.883850,136.776016 573.854553,174.919876 
	C583.909729,204.489716 589.450134,234.941452 588.708984,266.151886 
	C586.180847,372.613220 522.157776,466.858612 419.357574,501.594086 
	C411.200836,504.350189 402.805328,506.399780 393.683502,509.018097 
	C399.330658,515.374451 404.658447,521.395996 410.012695,527.393982 
	C444.188812,565.679260 478.609558,603.750305 512.410095,642.364319 
	C523.001099,654.463623 534.110779,665.361633 548.982666,671.841675 
	C596.634827,692.604980 649.375793,670.084778 666.790527,620.392639 
	C674.471924,598.474121 679.580872,575.633423 685.459473,553.107483 
	C710.245972,458.130371 735.013428,363.147797 759.437378,268.077209 
	C763.258667,253.202850 768.024841,239.008041 777.475159,226.794769 
	C791.011536,209.300690 808.790344,199.170563 830.949463,197.339798 
	C853.341187,195.489761 873.573853,208.895584 880.040894,230.995026 
	C887.093262,255.094696 893.050842,279.516876 899.371887,303.828064 
	C915.404968,365.492065 931.348877,427.179230 947.383118,488.842926 
	C952.822144,509.760010 958.424744,530.634583 963.952576,551.528564 
	C964.481079,551.719788 965.009521,551.911011 965.538025,552.102173 
	C969.721619,543.245239 974.936829,534.716858 977.883179,525.465881 
	C984.948242,503.283539 991.006470,480.778473 997.365479,458.373688 
	C1017.716370,386.671753 1037.984253,314.946198 1058.350952,243.248718 
	C1077.536377,175.709473 1097.001099,108.248795 1115.926025,40.636829 
	C1121.967896,19.050886 1139.318237,5.840388 1160.520264,6.586384 
	C1173.138550,7.030357 1185.785278,6.667725 1199.212280,6.667725 
	C1197.220947,13.692280 1195.408325,20.152685 1193.558228,26.602354 
	C1165.805054,123.356674 1137.995728,220.094986 1110.305786,316.867401 
	C1088.476196,393.159119 1067.019775,469.558441 1044.930420,545.774597 
	C1036.263794,575.677307 1021.550110,602.027100 995.198853,620.357971 
	C991.934143,622.629028 988.518127,624.682434 985.212646,626.810669 
	C996.430420,664.230896 1033.103394,689.194580 1070.006470,676.104492 
	C1087.986450,669.726746 1097.887817,655.393066 1102.951538,637.841309 
	C1123.797119,565.587585 1144.202148,493.206787 1164.973755,420.931610 
	C1201.554077,293.650360 1238.276489,166.409973 1274.959473,39.158257 
	C1281.039429,18.067167 1295.955444,6.812151 1317.937256,6.696488 
	C1331.572632,6.624741 1345.208862,6.683173 1359.622681,6.683173 
	C1357.834839,13.013441 1356.269043,18.715454 1354.614380,24.391644 
	C1325.003296,125.976524 1295.426147,227.571381 1265.749756,329.137207 
	C1234.812500,435.018677 1203.796265,540.877136 1172.767944,646.731995 
	C1166.929321,666.650940 1159.516846,685.865540 1146.308960,702.287842 
	C1121.644653,732.954407 1089.536377,748.263733 1050.265747,748.235535 
	C1008.493469,748.205627 975.410461,729.717773 948.209595,699.216736 
	C929.939575,678.730164 919.030518,654.471069 912.228149,628.171387 
	C884.569275,521.234680 856.939758,414.290436 829.299561,307.348938 
	C827.731262,301.281128 826.164734,295.212891 823.479492,289.052277 
	C822.042969,294.169403 820.499329,299.259186 819.185791,304.407684 
	C792.084961,410.638245 765.299072,516.950195 737.817017,623.081970 
	C722.493652,682.258606 686.002014,722.780029 627.523193,742.127991 
	C601.943909,750.591064 575.750610,750.164490 549.212158,743.885986 
z"/>
<path fill="#828382" opacity="1.000000" stroke="none" 
	d="
M175.000000,154.163101 
	C228.156448,154.162796 280.814697,153.903015 333.468567,154.270447 
	C359.836121,154.454437 383.496155,163.050522 403.415436,180.693497 
	C424.009460,198.934082 435.407471,222.160522 438.954681,249.209732 
	C446.553497,307.155090 407.780060,360.121307 345.154388,368.751495 
	C339.565704,369.521667 333.864960,369.758392 328.215607,369.766052 
	C266.727661,369.849396 205.237854,370.117462 143.752289,369.734558 
	C112.610634,369.540649 88.386314,389.808868 86.020576,425.295990 
	C85.378922,434.921173 85.757004,444.617798 85.754578,454.281616 
	C85.730606,549.929688 85.725060,645.577759 85.714333,741.225830 
	C85.714096,743.357544 85.714302,745.489319 85.714302,747.951294 
	C62.272720,747.951294 39.368130,747.951294 15.990098,747.951294 
	C15.907166,746.344421 15.752160,744.742554 15.752150,743.140747 
	C15.751443,640.327454 15.959336,537.513550 15.662666,434.701111 
	C15.565113,400.893677 24.643059,370.578522 46.600464,344.667694 
	C68.683540,318.608551 96.964737,303.432465 131.118713,302.168579 
	C168.888657,300.770874 206.734497,301.359100 244.547806,301.220001 
	C273.041779,301.115173 301.536591,301.242859 330.031036,301.236816 
	C347.164795,301.233185 360.367706,292.674561 366.625854,277.592834 
	C372.923981,262.414825 369.503143,244.545746 358.029572,233.187485 
	C350.480743,225.714523 341.139221,222.995087 330.733124,223.000397 
	C258.413849,223.037308 186.094589,223.031433 113.775314,223.038712 
	C82.781334,223.041824 51.787361,223.043549 20.793383,223.045883 
	C19.166698,223.046005 17.540014,223.045898 15.307373,223.045898 
	C15.307373,217.463440 15.306085,212.343445 15.307664,207.223465 
	C15.310286,198.725113 15.648833,190.211044 15.249595,181.731659 
	C14.391621,163.509293 27.799290,154.157013 43.028919,154.169266 
	C86.852585,154.204529 130.676300,154.169846 175.000000,154.163101 
z"/>
</svg>